<svg width="105" height="105" viewBox="0 0 105 105" fill="none" xmlns="http://www.w3.org/2000/svg">
<circle cx="52.5" cy="52.5" r="52.5" fill="white"/>
<path d="M57.8426 0.272545C69.9044 1.5064 81.1673 6.87713 89.7186 15.4727C98.27 24.0682 103.583 35.3587 104.754 47.4266L99.7798 47.9096C98.7196 36.9905 93.9128 26.7749 86.1755 18.9976C78.4382 11.2204 68.2475 6.36091 57.334 5.24451L57.8426 0.272545Z" fill="#48A3DB"/>
<path d="M47.1574 104.727C35.0956 103.494 23.8327 98.1229 15.2814 89.5273C6.73 80.9318 1.41739 69.6413 0.245702 57.5734L5.22024 57.0904C6.28037 68.0095 11.0872 78.2251 18.8245 86.0024C26.5618 93.7796 36.7525 98.6391 47.666 99.7555L47.1574 104.727Z" fill="#567CBE"/>
<path d="M104.727 57.8426C103.494 69.9044 98.1229 81.1673 89.5273 89.7186C80.9318 98.27 69.6413 103.583 57.5734 104.754L57.0904 99.7798C68.0095 98.7196 78.2251 93.9128 86.0024 86.1755C93.7796 78.4382 98.6391 68.2475 99.7555 57.334L104.727 57.8426Z" fill="#324252"/>
<path d="M0.27255 47.1574C1.50641 35.0956 6.87714 23.8327 15.4727 15.2814C24.0682 6.73 35.3587 1.41738 47.4266 0.2457L47.9096 5.22023C36.9905 6.28037 26.7749 11.0872 18.9976 18.8245C11.2204 26.5618 6.36091 36.7525 5.24452 47.666L0.27255 47.1574Z" fill="#E7BF08"/>
<path d="M43.3757 54.8566C45.4204 55.36 47.4023 55.6116 49.3212 55.6116C50.4223 55.6116 51.3975 55.5172 52.2468 55.3285C54.7005 54.7937 56.8397 53.268 58.6642 50.7514C59.1361 50.1222 59.608 49.8076 60.0799 49.8076C60.7405 49.8076 61.0708 50.2008 61.0708 50.9873C61.0708 51.3333 60.9449 51.6794 60.6933 52.0254C58.68 54.8881 57.2329 56.7756 56.3521 57.6878C54.1186 60.0472 51.948 61.2269 49.8403 61.2269C47.1034 61.2269 43.7846 60.2045 39.8838 58.1597C36.9268 60.3618 33.9068 61.4628 30.824 61.4628C27.9927 61.4628 25.7592 60.8651 24.1234 59.6697C22.7078 58.6316 22 57.389 22 55.9419C22 54.5263 22.4876 53.3624 23.4628 52.4501C24.5638 51.412 26.1367 50.8929 28.1815 50.8929C30.1633 50.8929 32.7901 51.4277 36.0617 52.4973C37.8234 50.3267 39.412 47.6528 40.8276 44.4755C35.5741 43.1228 32.9474 40.15 32.9474 35.5572C32.9474 32.1283 34.363 29.2341 37.1942 26.8748C39.585 24.8615 41.9915 23.8548 44.4138 23.8548C46.3642 23.8548 47.8899 24.1537 48.9909 24.7514C49.4313 25.003 49.6515 25.3019 49.6515 25.6479C49.6515 26.4029 49.2111 26.7804 48.3303 26.7804C48.1101 26.7804 47.9056 26.7332 47.7169 26.6388C46.8361 26.3872 45.7822 26.2613 44.5554 26.2613C42.5106 26.2613 40.5602 27.0163 38.7042 28.5263C36.6594 30.225 35.5584 32.2698 35.4011 34.6606C35.2753 36.8627 35.6842 38.5457 36.6279 39.7096C37.6661 40.9679 39.4277 41.7858 41.9129 42.1633C42.2275 41.4713 42.605 40.6691 43.0454 39.7568C44.9643 35.9189 47.2293 32.6316 49.8403 29.8947C53.4265 26.1198 57.0442 24.2323 60.6933 24.2323C62.8953 24.2323 64.2952 24.9558 64.8929 26.4029C65.3019 27.3781 65.3491 28.5263 65.0345 29.8476C64.2795 33.0248 62.2662 36.0448 58.9946 38.9074C56.0375 41.4555 52.8603 43.2644 49.4628 44.3339C47.8899 48.5178 45.8609 52.0254 43.3757 54.8566ZM60.3158 26.3085C59.6552 26.3085 59.1047 26.4344 58.6642 26.686C57.5632 27.2837 56.6195 28.1331 55.833 29.2341C54.1972 31.5935 52.3884 35.683 50.4065 41.5027C52.5771 40.5904 55.0309 38.7973 57.7677 36.1234C60.8191 33.1034 62.3448 30.5868 62.3448 28.5735C62.3448 27.9758 62.1561 27.4567 61.7786 27.0163C61.4325 26.5445 60.9449 26.3085 60.3158 26.3085ZM33.8911 54.951C31.4374 53.7241 29.3926 53.1107 27.7568 53.1107C25.9322 53.1107 25.02 53.8342 25.02 55.2813C25.02 56.0992 25.3503 56.7756 26.0109 57.3103C26.703 57.8137 27.4737 58.0653 28.323 58.0653C29.9589 58.0653 31.8149 57.0272 33.8911 54.951Z" fill="#324252"/>
<path d="M64.1397 66.1924C63.4162 64.8397 63.0544 63.7701 63.0544 62.9837C63.0544 62.1658 63.369 61.7568 63.9982 61.7568C64.6588 61.7568 65.1621 62.2601 65.5082 63.2668L65.6025 63.5499C68.8742 57.4156 72.4761 52.7284 76.4083 49.4882C74.4894 47.9153 71.9885 47.1289 68.9056 47.1289C65.0992 47.1289 61.859 48.4186 59.1851 50.9982C56.5112 53.5777 55.1742 56.7393 55.1742 60.4828C55.1742 63.1881 55.7877 65.17 57.0145 66.4283C57.8953 67.0889 58.7762 67.7338 59.657 68.363C59.8772 68.6146 59.9873 68.9292 59.9873 69.3067C59.9873 70.3134 59.5154 70.8167 58.5717 70.8167C58.1313 70.8167 57.6751 70.6437 57.2033 70.2976C54.2462 68.2214 52.7677 65.17 52.7677 61.1434C52.7677 56.7393 54.3878 52.9486 57.6279 49.7713C61.0569 46.4053 65.461 44.7223 70.8403 44.7223C74.2063 44.7223 77.1162 45.5245 79.5699 47.1289C80.8282 46.3424 82.1966 45.5402 83.6751 44.7223C84.1785 44.4392 84.6346 44.2976 85.0436 44.2976C85.6727 44.2976 85.9873 44.565 85.9873 45.0998C85.9873 45.6975 85.5626 46.2008 84.7132 46.6098C83.5178 47.176 82.4483 47.8052 81.5045 48.4973C83.3291 50.0702 84.7447 51.9891 85.7514 54.2541C86.6636 56.3303 87.1198 58.3593 87.1198 60.3412C87.1198 63.4555 85.9558 66.1766 83.628 68.5045C81.3315 70.801 78.6733 71.9492 75.6534 71.9492C73.7344 71.9492 71.8784 71.6031 70.0853 70.9111C68.3866 75.4725 65.8699 78.9486 62.5354 81.3394C59.7042 83.3842 56.6999 84.4065 53.5227 84.4065C50.4713 84.4065 47.9232 83.5886 45.8784 81.9528C43.8336 80.317 42.8113 78.2093 42.8113 75.6298C42.8113 73.3019 43.5191 71.493 44.9347 70.2033C46.0672 69.2281 47.3255 68.7405 48.7096 68.7405C49.7477 68.7405 50.6128 69.1022 51.3049 69.8258C52.0284 70.5178 52.3902 71.3043 52.3902 72.1851C52.3902 73.1918 51.8869 74.0254 50.8802 74.686C49.905 75.3466 49.3702 75.7241 49.2759 75.8185C48.6152 76.4477 48.2849 77.1869 48.2849 78.0363C48.2849 79.4834 49.2759 80.2069 51.2577 80.2069C54.6237 80.5529 58.9177 75.8814 64.1397 66.1924ZM71.2178 67.7024C71.4065 67.7024 71.7054 67.7338 72.1143 67.7967C72.5547 67.8596 72.8851 67.8911 73.1053 67.8911C75.1186 67.8911 76.833 66.8215 78.2486 64.6824C79.6013 62.6376 80.2777 60.2626 80.2777 57.5572C80.2777 55.3551 79.6957 53.389 78.5318 51.6588C76.1724 54.8046 73.7344 60.1524 71.2178 67.7024Z" fill="#324252"/>
</svg>
